<?xml version="1.0" encoding="UTF-8"?>
<!DOCTYPE svg PUBLIC "-//W3C//DTD SVG 1.1//EN" "http://www.w3.org/Graphics/SVG/1.1/DTD/svg11.dtd">
<!-- Creator: CorelDRAW -->
<svg xmlns="http://www.w3.org/2000/svg" xml:space="preserve" width="2048px" height="2048px" style="shape-rendering:geometricPrecision; text-rendering:geometricPrecision; image-rendering:optimizeQuality; fill-rule:evenodd; clip-rule:evenodd"
viewBox="0 0 2048 2048"
 xmlns:xlink="http://www.w3.org/1999/xlink">
 <defs>
  <style type="text/css">
   <![CDATA[
    .fil6 {fill:none}
    .fil5 {fill:#4F5050;fill-rule:nonzero}
    .fil4 {fill:#575758;fill-rule:nonzero}
    .fil0 {fill:#616161;fill-rule:nonzero}
    .fil3 {fill:#6C6C6C;fill-rule:nonzero}
    .fil2 {fill:#949494;fill-rule:nonzero}
    .fil1 {fill:#A5A5A6;fill-rule:nonzero}
   ]]>
  </style>
 </defs>
 <g id="Layer_x0020_1">
  <metadata id="CorelCorpID_0Corel-Layer"/>
  <g id="_459771488">
   <polygon id="_459772088" class="fil0" points="538.122,490.835 412.737,490.835 412.737,640.904 1114.37,932.14 1133.72,940.172 1133.72,961.039 1133.72,1152.79 1071.02,1152.79 1071.02,981.907 369.388,690.67 350.041,682.64 350.041,661.772 350.041,459.487 350.041,428.139 381.389,428.139 538.122,428.139 "/>
   <path id="_459771992" class="fil1" d="M587.102 255.999l1030.53 0c22.1221,0 42.2126,9.02835 56.7556,23.5725 14.5441,14.5429 23.5713,34.6335 23.5713,56.7556l0 246.858c0,22.1221 -9.02717,42.2114 -23.5713,56.7556 -14.5429,14.5429 -34.6335,23.5713 -56.7556,23.5713l-1030.53 0c-22.1221,0 -42.2126,-9.02835 -56.7556,-23.5713 -14.5429,-14.5441 -23.5713,-34.6335 -23.5713,-56.7556l0 -246.858c0,-22.1221 9.02835,-42.2126 23.5713,-56.7556 14.5429,-14.5441 34.6335,-23.5725 56.7556,-23.5725z"/>
   <path id="_459771872" class="fil2" d="M1697.96 459.756l0 123.429c0,22.1221 -9.02717,42.2114 -23.5713,56.7556 -14.5429,14.5429 -34.6335,23.5713 -56.7556,23.5713l-1030.53 0c-22.1221,0 -42.2126,-9.02835 -56.7556,-23.5713 -14.5429,-14.5441 -23.5713,-34.6335 -23.5713,-56.7556l0 -123.429 1191.18 0z"/>
   <g>
    <path id="_459771776" class="fil3" d="M976.978 1102.37l250.778 0 31.3477 0 0 31.3477 0 577.959c0,22.1221 -9.02835,42.2126 -23.5713,56.7556 -14.5441,14.5441 -34.6335,23.5713 -56.7556,23.5713l-152.819 0c-22.1209,0 -42.2114,-9.02717 -56.7544,-23.5713 -14.5441,-14.5429 -23.5725,-34.6335 -23.5725,-56.7556l0 -577.959 0 -31.3477 31.3477 0z"/>
    <path id="_459770744" class="fil4" d="M912.194 1165.07c-16.1575,0 -29.2583,-14.0362 -29.2583,-31.3477 0,-17.3126 13.1008,-31.3477 29.2583,-31.3477l380.344 0c16.1587,0 29.2583,14.0351 29.2583,31.3477 0,17.3114 -13.0996,31.3477 -29.2583,31.3477l-380.344 0z"/>
   </g>
   <g>
    <path id="_459770312" class="fil0" d="M1102.36 1102.37l125.392 0 31.3477 0 0 31.3477 0 577.959c0,22.1221 -9.02835,42.2126 -23.5713,56.7556 -14.5441,14.5441 -34.6335,23.5713 -56.7556,23.5713l-76.4127 0 0 -689.633z"/>
    <path id="_459770552" class="fil5" d="M1102.36 1102.37l190.174 0c16.1587,0 29.2583,14.0351 29.2583,31.3477 0,17.3114 -13.0996,31.3477 -29.2583,31.3477l-190.174 0 0 -62.6953z"/>
   </g>
  </g>
  <rect class="fil6" width="2048" height="2048"/>
 </g>
</svg>
